<svg width="16" height="17" viewBox="0 0 16 17" fill="none" xmlns="http://www.w3.org/2000/svg">
<g clip-path="url(#clip0_952_4139)">
<path fill-rule="evenodd" clip-rule="evenodd" d="M12.1758 5.48817V4.22554C12.1758 1.89184 10.3062 -1.9246e-07 7.99999 0C5.69377 1.92461e-07 3.82421 1.89184 3.82421 4.22553V5.48817H0V12.9523C0 15.1878 1.79086 17 4 17H12C14.2091 17 16 15.1878 16 12.9523V5.48817H12.1758ZM10.9758 7.03184C10.9758 7.36716 11.2444 7.63899 11.5758 7.63899C11.9072 7.63899 12.1758 7.36716 12.1758 7.03184V6.70247H14.8V12.9523C14.8 14.5171 13.5464 15.7857 12 15.7857H4C2.4536 15.7857 1.2 14.5171 1.2 12.9523V6.70247H3.82421V7.03184C3.82421 7.36716 4.09284 7.63899 4.42421 7.63899C4.75558 7.63899 5.02421 7.36716 5.02421 7.03184V6.70247H10.9758V7.03184ZM5.02421 5.48817H10.9758V4.22554C10.9758 2.56247 9.64348 1.2143 7.99999 1.2143C6.35651 1.2143 5.02421 2.56247 5.02421 4.22553V5.48817Z" fill="black"/>
</g>
<defs>
<clipPath id="clip0_952_4139">
<rect width="16" height="17" fill="white"/>
</clipPath>
</defs>
</svg>
