<svg width="39" height="39" viewBox="0 0 39 39" fill="none" xmlns="http://www.w3.org/2000/svg">
<g clip-path="url(#clip0_964_4154)">
<path d="M6.42383 22.91L6.62245 23.1483C9.38316 26.4612 14.5126 26.3298 17.1 22.8799L15.9 21.9799C13.8935 24.6552 9.91568 24.7572 7.77478 22.1881L7.57616 21.9497L6.42383 22.91Z" fill="#887569"/>
<path d="M22.1225 23.1483L21.9238 22.91L23.0762 21.9497L23.2748 22.1881C25.4157 24.7572 29.3935 24.6552 31.4 21.9799L32.6 22.8799C30.0126 26.3298 24.8832 26.4612 22.1225 23.1483Z" fill="#887569"/>
<path d="M15.5 31.1797V32.6797H23.5V31.1797H15.5Z" fill="#887569"/>
<path d="M13.5304 13.96L13.232 14.2585C11.0391 16.4513 8.16514 17.8326 5.08288 18.1751L4.91724 16.6843C7.66096 16.3794 10.2193 15.1498 12.1713 13.1978L12.4698 12.8994L13.5304 13.96Z" fill="#887569"/>
<path d="M26.2681 14.2585L25.9697 13.96L27.0303 12.8994L27.3288 13.1978C29.2808 15.1498 31.8391 16.3794 34.5828 16.6843L34.4172 18.1751C31.3349 17.8326 28.461 16.4513 26.2681 14.2585Z" fill="#887569"/>
<path fill-rule="evenodd" clip-rule="evenodd" d="M38.5 19.9297C38.5 30.4231 29.9934 38.9297 19.5 38.9297C9.00659 38.9297 0.5 30.4231 0.5 19.9297C0.5 9.43628 9.00659 0.929688 19.5 0.929688C29.9934 0.929688 38.5 9.43628 38.5 19.9297ZM37 19.9297C37 29.5947 29.165 37.4297 19.5 37.4297C9.83502 37.4297 2 29.5947 2 19.9297C2 10.2647 9.83502 2.42969 19.5 2.42969C29.165 2.42969 37 10.2647 37 19.9297Z" fill="#887569"/>
</g>
<defs>
<clipPath id="clip0_964_4154">
<rect width="39" height="39" fill="white"/>
</clipPath>
</defs>
</svg>
