<svg width="134" height="40" viewBox="0 0 134 40" fill="none" xmlns="http://www.w3.org/2000/svg">
<g clip-path="url(#clip0_958_4139)">
<path fill-rule="evenodd" clip-rule="evenodd" d="M6 0.8H128C130.872 0.8 133.2 3.12812 133.2 6V34C133.2 36.8719 130.872 39.2 128 39.2H6C3.12812 39.2 0.8 36.8719 0.8 34V6C0.8 3.12812 3.12812 0.8 6 0.8ZM0 6C0 2.68629 2.68629 0 6 0H128C131.314 0 134 2.68629 134 6V34C134 37.3137 131.314 40 128 40H6C2.68629 40 0 37.3137 0 34V6ZM64.7844 22.4761C65.4807 22.0067 66.3004 21.7541 67.1401 21.7501C67.7021 21.7393 68.2606 21.8417 68.7822 22.0512C69.3038 22.2607 69.7779 22.5731 70.1764 22.9696C70.5748 23.3662 70.8893 23.8388 71.1013 24.3595C71.3132 24.8801 71.4183 25.4381 71.4101 26.0001C71.4101 26.8398 71.1613 27.6607 70.6952 28.3592C70.2291 29.0577 69.5665 29.6024 68.7911 29.9247C68.0157 30.2469 67.1622 30.3322 66.3383 30.1699C65.5144 30.0075 64.7571 29.6047 64.162 29.0123C63.5668 28.4199 63.1605 27.6645 62.9942 26.8414C62.828 26.0183 62.9093 25.1644 63.2279 24.3875C63.5465 23.6106 64.0881 22.9455 64.7844 22.4761ZM65.6611 28.2355C66.1083 28.4962 66.6237 28.6162 67.1401 28.5801C67.4684 28.5725 67.7919 28.4992 68.0914 28.3646C68.391 28.23 68.6606 28.0368 68.8842 27.7963C69.1079 27.5558 69.2812 27.273 69.3938 26.9645C69.5065 26.6561 69.5562 26.3281 69.5401 26.0001C69.5388 25.4824 69.3819 24.9771 69.0896 24.5498C68.7973 24.1225 68.3833 23.7931 67.9013 23.6042C67.4193 23.4154 66.8916 23.3759 66.3869 23.4909C65.8821 23.6059 65.4237 23.8701 65.0711 24.2492C64.7185 24.6282 64.4881 25.1045 64.4098 25.6163C64.3315 26.128 64.409 26.6514 64.6321 27.1186C64.8553 27.5857 65.2138 27.9748 65.6611 28.2355ZM55.4717 22.4712C56.1693 22.003 56.99 21.7521 57.8301 21.7501H57.8201C58.3821 21.7393 58.9406 21.8417 59.4622 22.0512C59.9838 22.2607 60.4579 22.5731 60.8564 22.9696C61.2548 23.3662 61.5693 23.8388 61.7813 24.3595C61.9932 24.8801 62.0983 25.4381 62.0901 26.0001C62.0901 26.8403 61.8411 27.6616 61.3745 28.3602C60.908 29.0589 60.2448 29.6037 59.4688 29.9256C58.6928 30.2476 57.8388 30.3324 57.0146 30.1692C56.1905 30.006 55.4332 29.6022 54.8384 29.0088C54.2437 28.4155 53.8381 27.6591 53.673 26.8354C53.5079 26.0116 53.5906 25.1574 53.9108 24.3806C54.2309 23.6039 54.7741 22.9394 55.4717 22.4712ZM56.3487 28.2407C56.7972 28.5 57.3134 28.6183 57.8301 28.5801H57.8201C58.1484 28.5725 58.4719 28.4992 58.7714 28.3646C59.071 28.23 59.3406 28.0368 59.5642 27.7963C59.7879 27.5558 59.9612 27.273 60.0738 26.9645C60.1865 26.6561 60.2362 26.3281 60.2201 26.0001C60.2187 25.482 60.0614 24.9764 59.7685 24.549C59.4757 24.1216 59.0611 23.7922 58.5785 23.6038C58.0959 23.4154 57.5677 23.3766 57.0628 23.4925C56.5578 23.6085 56.0995 23.8737 55.7474 24.2538C55.3953 24.6339 55.1658 25.1111 55.0888 25.6234C55.0118 26.1358 55.0907 26.6594 55.3155 27.1262C55.5402 27.593 55.9002 27.9814 56.3487 28.2407ZM46.7401 24.8601V23.0601L52.8101 23.0101C52.8798 23.3827 52.9133 23.7611 52.9101 24.1401C52.9571 25.6959 52.3978 27.209 51.3501 28.3601C50.7583 28.9798 50.0407 29.4655 49.2455 29.7846C48.4504 30.1037 47.5961 30.2488 46.7401 30.2101C45.8511 30.2447 44.9643 30.0995 44.1327 29.7831C43.3012 29.4668 42.5421 28.9859 41.9009 28.3691C41.2596 27.7524 40.7495 27.0125 40.4011 26.1939C40.0527 25.3753 39.873 24.4948 39.873 23.6051C39.873 22.7154 40.0527 21.8349 40.4011 21.0163C40.7495 20.1977 41.2596 19.4579 41.9009 18.8411C42.5421 18.2244 43.3012 17.7434 44.1327 17.4271C44.9643 17.1107 45.8511 16.9655 46.7401 17.0001C47.5819 16.9928 48.4166 17.1546 49.1947 17.4758C49.9728 17.797 50.6786 18.2711 51.2701 18.8701L50.0001 20.1401C49.1239 19.2942 47.9479 18.8303 46.7301 18.8501C45.4571 18.8501 44.2362 19.3558 43.336 20.256C42.4358 21.1562 41.9301 22.3771 41.9301 23.6501C41.9301 24.9232 42.4358 26.1441 43.336 27.0442C44.2362 27.9444 45.4571 28.4501 46.7301 28.4501C47.3465 28.4747 47.9613 28.3699 48.5348 28.1426C49.1083 27.9152 49.6279 27.5704 50.0601 27.1301C50.6399 26.5079 50.9924 25.7079 51.0601 24.8601H46.7401ZM90.6516 22.539C91.3016 23.0229 91.7893 23.6929 92.0501 24.4601L92.2601 24.9101L86.5701 27.2601C86.7444 27.657 87.034 27.9923 87.4014 28.2224C87.7688 28.4524 88.1969 28.5666 88.6301 28.5501C89.0508 28.5512 89.4646 28.443 89.831 28.2362C90.1973 28.0293 90.5037 27.7309 90.7201 27.3701L92.1701 28.3701C91.7815 28.9518 91.2547 29.4279 90.6369 29.756C90.0191 30.0841 89.3296 30.2539 88.6301 30.2501C88.0711 30.2583 87.5162 30.1538 86.9986 29.9427C86.4809 29.7316 86.0111 29.4184 85.6172 29.0217C85.2233 28.625 84.9134 28.153 84.706 27.6338C84.4986 27.1147 84.3979 26.559 84.4101 26.0001C84.3759 25.4542 84.4541 24.907 84.6397 24.3925C84.8254 23.878 85.1146 23.407 85.4895 23.0087C85.8644 22.6103 86.317 22.2931 86.8193 22.0767C87.3217 21.8602 87.8631 21.749 88.4101 21.7501C89.2199 21.7799 90.0016 22.055 90.6516 22.539ZM86.3726 24.9676C86.2715 25.2606 86.2298 25.5708 86.2501 25.8801L90.0501 24.3001C89.9039 24.0118 89.6762 23.7728 89.3953 23.6128C89.1144 23.4528 88.7927 23.3789 88.4701 23.4001C88.1605 23.4141 87.8567 23.4897 87.5766 23.6225C87.2966 23.7554 87.0458 23.9428 86.8391 24.1737C86.6323 24.4047 86.4737 24.6746 86.3726 24.9676ZM83.5001 30.0001H81.6301V17.5001H83.5001V30.0001ZM78.5001 22.7001H78.5701V22.0001H80.2901V29.5701C80.2901 32.7101 78.4801 34.0001 76.2901 34.0001C75.4832 34.0049 74.6932 33.7686 74.0214 33.3214C73.3497 32.8742 72.8269 32.2365 72.5201 31.4901L74.1501 30.8101C74.3167 31.2458 74.6091 31.622 74.9902 31.8909C75.3713 32.1598 75.8238 32.3092 76.2901 32.3201C77.6901 32.3201 78.5601 31.4501 78.5601 29.8201V29.2101H78.5001C78.2225 29.5304 77.8781 29.7859 77.491 29.9586C77.104 30.1314 76.6839 30.2172 76.2601 30.2101C75.1673 30.1571 74.1368 29.6857 73.3821 28.8935C72.6274 28.1014 72.2064 27.0492 72.2064 25.9551C72.2064 24.861 72.6274 23.8089 73.3821 23.0167C74.1368 22.2245 75.1673 21.7531 76.2601 21.7001C76.6829 21.6996 77.101 21.7884 77.487 21.9607C77.873 22.133 78.2183 22.385 78.5001 22.7001ZM76.427 28.5798C75.7831 28.5223 75.184 28.2261 74.7474 27.7493C74.31 27.2717 74.0675 26.6477 74.0675 26.0001C74.0675 25.3526 74.31 24.7285 74.7474 24.2509C75.1847 23.7734 75.7851 23.477 76.4301 23.4201C76.7499 23.4365 77.0632 23.5168 77.3516 23.6562C77.6399 23.7955 77.8974 23.9912 78.1089 24.2316C78.3205 24.472 78.4818 24.7524 78.5833 25.0561C78.6848 25.3598 78.7245 25.6808 78.7001 26.0001C78.7274 26.3208 78.6893 26.6437 78.5883 26.9493C78.4872 27.2548 78.3252 27.5367 78.1121 27.7779C77.8989 28.0191 77.6391 28.2145 77.3483 28.3524C77.0596 28.4893 76.7462 28.5666 76.427 28.5798ZM96.3401 17.5001H100.81H100.82C101.353 17.4618 101.888 17.5337 102.392 17.7114C102.896 17.889 103.358 18.1686 103.749 18.5326C104.14 18.8967 104.452 19.3374 104.665 19.8273C104.879 20.3172 104.989 20.8458 104.989 21.3801C104.989 21.9144 104.879 22.443 104.665 22.933C104.452 23.4229 104.14 23.8636 103.749 24.2276C103.358 24.5917 102.896 24.8712 102.392 25.0488C101.888 25.2265 101.353 25.2984 100.82 25.2601H98.2101V30.0001H96.3401V17.5001ZM98.2001 23.5001H100.81L100.85 23.5301C101.419 23.5301 101.965 23.3041 102.367 22.9019C102.769 22.4996 102.995 21.954 102.995 21.3851C102.995 20.8162 102.769 20.2706 102.367 19.8684C101.965 19.4661 101.419 19.2401 100.85 19.2401H98.2001V23.5001ZM110.39 22.1578C110.981 21.8185 111.659 21.6594 112.34 21.7001L112.39 21.7301C114.52 21.7301 116.18 23.0001 116.18 25.1901V30.0001H114.38V29.0001H114.32C114.065 29.3971 113.707 29.7181 113.285 29.9292C112.862 30.1404 112.391 30.2339 111.92 30.2001C111.535 30.2286 111.148 30.1795 110.782 30.0558C110.416 29.9321 110.078 29.7363 109.789 29.4799C109.5 29.2235 109.266 28.9118 109.099 28.5632C108.933 28.2145 108.838 27.8361 108.82 27.4501C108.82 25.6401 110.63 24.6401 112.42 24.6401C113.1 24.6372 113.77 24.8021 114.37 25.1201V24.9901C114.346 24.7523 114.276 24.5215 114.162 24.3113C114.048 24.1011 113.894 23.9157 113.708 23.7658C113.521 23.616 113.307 23.5047 113.078 23.4384C112.848 23.3722 112.607 23.3524 112.37 23.3801C112.028 23.3522 111.685 23.4242 111.383 23.5876C111.082 23.7509 110.834 23.9985 110.67 24.3001L109.01 23.6101C109.319 23.0019 109.798 22.4972 110.39 22.1578ZM110.65 27.4901C110.65 28.2401 111.5 28.5501 112.11 28.5501L112.16 28.5801C112.705 28.5668 113.227 28.3571 113.629 27.9896C114.032 27.6221 114.288 27.1215 114.35 26.5801C113.831 26.2905 113.244 26.1455 112.65 26.1601C111.71 26.1601 110.65 26.4901 110.65 27.4901ZM120.6 27.4201L122.74 22.0001H124.82L119.7 33.7901H117.75L119.65 29.5801L116.32 22.0001H118.32L120.54 27.4201H120.6ZM107.8 30.0001H105.93V17.5001H107.8V30.0001ZM48.9803 6.99973C49.3701 6.83745 49.7881 6.75391 50.2103 6.75391C50.6325 6.75391 51.0505 6.83745 51.4402 6.99973C51.83 7.162 52.1838 7.3998 52.4812 7.69942L52.4828 7.70097C53.0709 8.31989 53.3988 9.14108 53.3988 9.99487C53.3988 10.8487 53.0709 11.6698 52.4828 12.2888L52.4808 12.2908C51.8775 12.8908 51.0611 13.2275 50.2103 13.2275C49.3594 13.2275 48.5431 12.8908 47.9398 12.2908L47.9375 12.2886C47.3518 11.6685 47.0255 10.8479 47.0255 9.99487C47.0255 9.1419 47.3518 8.32124 47.9376 7.7012L47.9393 7.6994C48.2367 7.39978 48.5905 7.162 48.9803 6.99973ZM83.6303 6.99973C84.0201 6.83745 84.4381 6.75391 84.8603 6.75391C85.2825 6.75391 85.7005 6.83745 86.0902 6.99973C86.48 7.162 86.8338 7.3998 87.1312 7.69942L87.1328 7.70097C87.7209 8.3199 88.0488 9.14108 88.0488 9.99487C88.0488 10.8487 87.7209 11.6698 87.1328 12.2888L87.1308 12.2908C86.5275 12.8908 85.7111 13.2275 84.8603 13.2275C84.0094 13.2275 83.1931 12.8908 82.5898 12.2908L82.5875 12.2886C82.0018 11.6685 81.6755 10.8479 81.6755 9.99487C81.6755 9.1419 82.0018 8.32124 82.5876 7.7012L82.5893 7.6994C82.8867 7.39978 83.2405 7.162 83.6303 6.99973ZM57.1803 13.2299C56.7546 13.2381 56.3317 13.1602 55.9369 13.0009C55.5415 12.8413 55.1824 12.6033 54.8814 12.3014C54.5804 11.9994 54.3436 11.6396 54.1853 11.2436C54.0273 10.8484 53.9507 10.4254 53.9602 9.99987C53.9507 9.57436 54.0273 9.15131 54.1853 8.7561C54.3436 8.36018 54.5804 8.00038 54.8814 7.69839C55.1824 7.3964 55.5415 7.15845 55.9369 6.99888C56.3316 6.83959 56.7545 6.76169 57.18 6.76985C57.6128 6.75947 58.0423 6.84713 58.4364 7.02627C58.8312 7.20572 59.1802 7.47231 59.4572 7.80601L59.5165 7.87748L58.8301 8.53853L58.7617 8.45175C58.5741 8.21354 58.3321 8.02369 58.0561 7.89809C57.7801 7.77248 57.4781 7.71476 57.1752 7.72975L57.1677 7.73012C56.8742 7.7225 56.5823 7.7742 56.3096 7.88264C56.0375 7.9908 55.7902 8.15288 55.5825 8.35911C55.1668 8.81425 54.9362 9.40841 54.9362 10.0249C54.9362 10.6413 55.1668 11.2355 55.5825 11.6906C55.7902 11.8969 56.0375 12.0589 56.3096 12.1671C56.5823 12.2756 56.8742 12.3275 57.1677 12.3199H57.1694C57.5065 12.3169 57.8387 12.2388 58.1419 12.0914C58.4451 11.9439 58.7116 11.7308 58.9222 11.4674L58.9919 11.3801L59.6752 12.0634L59.6174 12.1335C59.3359 12.4749 58.9829 12.7503 58.5832 12.9402L58.5815 12.941C58.1417 13.1402 57.663 13.2389 57.1803 13.2299ZM94.5468 7.38522C94.1955 7.06482 93.7348 6.89114 93.2593 6.89987H90.9903V13.1016L93.3889 13.0599H93.3905C93.8887 13.0664 94.3705 12.8819 94.737 12.5444C94.9216 12.3837 95.0687 12.1844 95.1677 11.9606C95.2668 11.7368 95.3154 11.4941 95.3103 11.2495C95.3148 10.9161 95.2051 10.5911 94.9993 10.3286C94.8464 10.1287 94.6496 9.96796 94.4253 9.85808C94.598 9.74943 94.7471 9.60604 94.8629 9.43619L94.8635 9.43536C95.0224 9.19715 95.1049 8.91622 95.1003 8.62995C95.1046 8.39473 95.0573 8.16141 94.9618 7.94642C94.8662 7.73125 94.7245 7.53968 94.5468 7.38522ZM95.1003 8.62995L95.1002 8.63183L95.0003 8.62987L95.1003 8.62811V8.62995ZM95.3103 11.2495L95.3102 11.2514L95.2103 11.2499L95.3102 11.2477L95.3103 11.2495ZM41.6603 6.89987H45.8603V12.1599H46.5303V14.3599H45.5903V13.0999H41.2103V14.3699H40.2703V12.1699H40.9567C41.2194 11.8826 41.4186 11.5429 41.5408 11.1729C41.6676 10.7894 41.7086 10.3828 41.661 9.98166L41.6603 9.97579V6.89987ZM60.1303 6.89987H64.4503V7.83987H62.7803V13.0999H61.8103V7.83987H60.1303V6.89987ZM68.6736 6.89987H69.8047L67.4741 12.0951C67.3766 12.4117 67.1838 12.6906 66.9219 12.8936C66.6583 13.098 66.3378 13.2154 66.0046 13.2298L65.999 13.23C65.7789 13.2272 65.5616 13.18 65.36 13.0914L65.2804 13.0564L65.539 12.1385L65.6506 12.2035C65.7571 12.2655 65.8779 12.2987 66.0012 12.2999H66.0078C66.1314 12.3093 66.2549 12.2809 66.3618 12.2183C66.4665 12.1279 66.5473 12.0131 66.5969 11.884L66.5992 11.8781L66.8004 11.4396L64.7554 6.90987H65.8861L67.2989 10.1936L68.6736 6.89987ZM70.4203 6.89987H74.9603V13.0999H73.9903V7.83987H71.3903V13.0999H70.4203V6.89987ZM76.1303 6.89987H77.1003V9.46987H79.9003V6.89987H80.8703V13.0999H79.9003V10.3899H77.1003V13.0999H76.1303V6.89987ZM48.6526 11.6508C49.0666 12.0621 49.6266 12.293 50.2103 12.293C50.7939 12.293 51.3539 12.0621 51.7679 11.6508C52.1774 11.1985 52.4042 10.6101 52.4042 9.99987C52.4042 9.38967 52.1774 8.80128 51.7679 8.34895C51.3539 7.9376 50.7939 7.7067 50.2103 7.7067C49.6266 7.7067 49.0666 7.9376 48.6526 8.34895C48.2432 8.80128 48.0164 9.38967 48.0164 9.99987C48.0164 10.6101 48.2432 11.1985 48.6526 11.6508ZM83.3026 11.6508C83.7166 12.0621 84.2766 12.293 84.8603 12.293C85.4439 12.293 86.0039 12.0621 86.4179 11.6508C86.8274 11.1985 87.0542 10.6101 87.0542 9.99987C87.0542 9.38967 86.8274 8.80127 86.4179 8.34893C86.0039 7.9376 85.4439 7.7067 84.8603 7.7067C84.2766 7.7067 83.7166 7.9376 83.3026 8.34893C82.8932 8.80127 82.6664 9.38967 82.6664 9.99987C82.6664 10.6101 82.8932 11.1985 83.3026 11.6508ZM93.6578 7.87202C93.5555 7.82773 93.4447 7.8065 93.3333 7.80983L93.3303 7.80987H91.9981L91.9624 9.46987H93.2644C93.3807 9.47472 93.4965 9.45426 93.604 9.40974C93.7115 9.36522 93.8079 9.2978 93.8867 9.21218L93.8897 9.20884L93.8931 9.2058C93.9717 9.13453 94.0351 9.04817 94.0796 8.95186C94.1241 8.85556 94.1487 8.75128 94.152 8.64524C94.1553 8.53921 94.1373 8.43359 94.0989 8.33469C94.0605 8.2358 94.0026 8.14564 93.9286 8.06961L93.9253 8.06618C93.8514 7.98265 93.7602 7.91631 93.6578 7.87202ZM42.6003 7.83987V9.997C42.6441 10.7645 42.4713 11.5276 42.1032 12.1999H44.8303V7.83987H42.6003ZM91.9888 10.3699L91.9618 12.1599H93.4136C93.5343 12.1639 93.6544 12.1413 93.7654 12.0935C93.8763 12.0458 93.9753 11.9741 94.0554 11.8836L94.0582 11.8804C94.2167 11.716 94.3069 11.4975 94.3103 11.2691C94.3101 11.0307 94.2153 10.8021 94.0467 10.6335C93.8779 10.4647 93.649 10.3699 93.4103 10.3699H91.9888ZM25.8839 15.8563L22.2348 19.6416L22.2334 19.6401L10.1998 7.17383C10.4892 7.17426 10.7735 7.25392 11.0237 7.40472L25.8839 15.8563ZM21.7959 19.9928L9.54536 32.6991C9.22575 32.4803 9.03075 32.0565 9.02637 31.458V8.56249C9.02637 7.96401 9.22869 7.50679 9.55562 7.30933L21.7959 19.9928ZM22.2347 20.3446L10.163 32.8656C10.466 32.8708 10.7644 32.7888 11.0251 32.6286L25.9146 24.1542L22.2347 20.3446ZM26.3222 16.1057L31.2673 18.9234C32.3111 19.5173 32.3111 20.5001 31.2658 21.0971L26.35 23.9072L22.5734 19.9943L26.3222 16.1057Z" fill="#887569"/>
</g>
<defs>
<clipPath id="clip0_958_4139">
<rect width="134" height="40" fill="white"/>
</clipPath>
</defs>
</svg>
