<svg width="122" height="18" viewBox="0 0 122 18" fill="none" xmlns="http://www.w3.org/2000/svg">
<g clip-path="url(#clip0_952_4145)">
<path d="M18.9003 14.2379C18.0245 15.4922 17.3363 15.8685 15.7723 15.8685H10.0792V15.7431C9.95416 15.8685 11.2679 14.7396 13.1447 13.2971C15.522 11.4783 18.2122 9.59684 18.2122 6.39827C18.2122 3.38786 15.4595 2.0708 12.8319 2.0708C11.393 2.0708 9.57879 2.76069 8.7655 3.32514C8.7655 3.32514 8.64038 4.76763 8.57782 6.02197H8.95318C9.51623 5.14393 10.1418 4.45405 10.83 3.95231C11.393 3.57601 12.0186 3.32514 13.0822 3.32514C14.8964 3.32514 16.2102 4.76763 16.1477 6.33556C16.0851 8.27978 14.7088 10.0359 13.1447 11.6038C9.95416 14.7396 7.88965 16.5584 7.88965 16.5584V17.75H16.3353C17.3363 17.75 18.0245 17.75 18.9003 17.8128L19.2131 14.2379H18.9003Z" fill="white"/>
<path d="M62.2416 10.8512C62.2416 7.15088 60.5524 3.26242 57.049 3.26242C54.1712 3.26242 52.3569 6.02197 52.3569 9.59684C52.3569 13.7362 54.484 16.8093 57.6746 16.8093C60.4273 16.872 62.2416 14.3006 62.2416 10.8512ZM49.8545 10.224C49.8545 5.26937 53.3579 2.0708 57.2992 2.0708C61.4908 2.0708 64.6814 5.14393 64.6814 10.0359C64.6814 14.7396 61.3657 18.0009 57.3618 18.0009C53.1077 18.0009 49.8545 14.9278 49.8545 10.224Z" fill="white"/>
<path d="M88.7797 7.5899C88.6546 5.14393 87.2782 3.32514 84.7132 3.32514C82.1482 3.32514 80.7719 5.52023 80.5217 7.9662L88.7797 7.5899ZM78.2695 10.3494C78.2695 5.52023 81.2098 2.0708 85.3389 2.0708C88.9048 2.0708 91.157 4.20318 91.157 8.15435C91.157 8.40522 91.0945 8.59337 91.0945 8.84423H80.4591C80.3965 9.15782 80.3965 9.40869 80.3965 9.65955C80.3965 13.3599 82.3359 16.3076 86.2773 16.3076C88.2792 16.3076 89.593 15.8058 90.8442 15.1786C90.6565 15.8685 90.2812 16.433 89.7807 16.9347C88.9048 17.6246 87.5911 18.0009 85.6517 18.0009C81.0222 18.0009 78.2695 14.9905 78.2695 10.3494Z" fill="white"/>
<path d="M104.16 7.5899C104.035 5.14393 102.658 3.32514 100.093 3.32514C97.5283 3.32514 96.1519 5.52023 95.9017 7.9662L104.16 7.5899ZM93.5869 10.3494C93.5869 5.52023 96.5273 2.0708 100.656 2.0708C104.222 2.0708 106.475 4.20318 106.475 8.15435C106.475 8.40522 106.412 8.59337 106.412 8.84423H95.7766C95.714 9.15782 95.714 9.40869 95.714 9.65955C95.714 13.3599 97.6534 16.3076 101.595 16.3076C103.597 16.3076 104.91 15.8058 106.162 15.1786C105.974 15.8685 105.599 16.433 105.098 16.9347C104.222 17.6246 102.909 18.0009 100.969 18.0009C96.3396 18.0009 93.5869 14.9905 93.5869 10.3494Z" fill="white"/>
<path d="M76.3881 2.19623C76.0753 2.13352 75.6999 2.0708 75.262 2.0708C72.8221 2.0708 70.7576 4.26589 70.7576 4.26589V2.0708L66.9414 3.70144L68.6931 5.14393V15.1159C68.6931 16.2448 68.4428 16.9347 67.2542 17.5619V17.75H72.3842V17.5619C71.0704 16.9347 70.695 16.2448 70.695 15.1159V5.14393C71.7586 4.45404 72.697 4.14046 73.8231 4.14046C74.8866 4.14046 75.825 4.45404 76.5758 5.0185H76.6383L76.3881 2.19623Z" fill="white"/>
<path d="M45.1021 16.3691C43.4756 16.3691 42.4746 15.4284 42.4746 13.7977V4.0766H47.9174L48.0425 2.88498H42.4746V0H42.3495L38.4707 3.95117V4.0766H40.4726L40.4101 13.735C40.3475 16.4946 41.9741 17.9998 44.5391 17.9998C46.541 17.9998 47.9799 17.1845 48.1676 15.4911C47.4169 15.9928 46.4159 16.3691 45.1021 16.3691Z" fill="white"/>
<path d="M31.0445 8.77885C29.3553 8.08897 27.9164 7.27365 27.9164 6.27018C27.9164 4.70225 29.2928 3.38519 31.107 3.38519C32.108 3.38519 32.7962 3.63606 33.3592 4.01236C34.0474 4.5141 34.673 5.20399 35.2361 6.08202H35.6114C35.5489 4.82769 35.4237 3.38519 35.4237 3.38519C34.6104 2.82074 32.7336 2.13086 31.3573 2.13086C28.7297 2.13086 26.4775 3.69878 26.4775 6.64648C26.4775 9.84504 29.6056 10.7858 31.9829 11.7265C33.5469 12.3537 34.7981 12.9181 34.7981 14.1098C34.7981 15.6777 33.4843 16.6184 31.545 16.6184C31.107 16.6184 30.6691 16.5557 30.2937 16.493C29.4179 16.3676 28.6046 15.9913 28.0415 15.3641C27.6036 14.9878 27.2283 14.4861 26.9154 13.8589H26.5401C26.6026 14.8624 26.6652 15.7404 26.7278 16.5557C27.2908 16.9947 28.8548 17.9982 31.3573 17.9982C34.3602 17.9982 36.4247 16.3676 36.4247 13.7962C36.2996 10.7858 33.4218 9.78233 31.0445 8.77885Z" fill="white"/>
<path d="M121.437 14.6139C120.811 15.7428 120.186 16.5581 118.809 16.5581H112.053L122 2.44678H109.363L108.987 5.89621H109.363C110.176 4.64187 110.927 3.70112 112.303 3.70112H118.559L108.737 17.7498H121.5L121.812 14.6139H121.437Z" fill="white"/>
<path d="M4.0039 15.1159V2.0708H3.87878L0 6.02196V6.1474H2.00195V15.1159C2.00195 16.2448 1.75171 16.9347 0.563049 17.5618V17.75H5.69305V17.5618C4.37927 16.9347 4.0039 16.2448 4.0039 15.1159Z" fill="white"/>
</g>
<defs>
<clipPath id="clip0_952_4145">
<rect width="122" height="18" fill="white"/>
</clipPath>
</defs>
</svg>
