<svg width="59" height="61" viewBox="0 0 59 61" fill="none" xmlns="http://www.w3.org/2000/svg">
<g clip-path="url(#clip0_978_4139)">
<path fill-rule="evenodd" clip-rule="evenodd" d="M58.4196 19.5597C58.4196 18.8322 58.4196 18.1047 58.4152 17.3847C58.4116 16.7697 58.405 16.1622 58.3889 15.5472C58.3722 14.2103 58.258 12.8765 58.0472 11.5572C57.827 10.2372 57.4167 8.95814 56.8298 7.76219C55.6362 5.36353 53.7355 3.41329 51.3988 2.18969C50.2364 1.58392 48.9917 1.16167 47.7066 0.937187C46.4213 0.722442 45.1223 0.604627 43.8202 0.584687C43.2257 0.569687 42.6308 0.562187 42.0354 0.562187C41.3292 0.554688 40.6223 0.554688 39.9176 0.554688H18.5019C17.7958 0.554688 17.0889 0.554688 16.3842 0.562187C15.7888 0.562187 15.1936 0.569687 14.5987 0.584687C13.2968 0.604661 11.9981 0.722476 10.713 0.937187C9.4277 1.16178 8.18275 1.58403 7.02002 2.18969C4.68379 3.41363 2.7834 5.3638 1.58978 7.76219C1.00256 8.958 0.592262 10.2371 0.372434 11.5572C0.161251 12.8765 0.0470081 14.2103 0.0306711 15.5472C0.0146053 16.1622 0.00803289 16.7697 0.00438158 17.3847C0 18.1047 0 18.8322 0 19.5597V41.5497C0 42.2772 0 43.0047 0.00438158 43.7247C0.00438158 44.3397 0.0146053 44.9472 0.0306711 45.5622C0.0470081 46.8991 0.161251 48.2329 0.372434 49.5522C0.592262 50.8723 1.00256 52.1514 1.58978 53.3472C2.7834 55.7456 4.68379 57.6957 7.02002 58.9197C8.18275 59.5254 9.4277 59.9476 10.713 60.1722C11.9976 60.3906 13.2966 60.5084 14.5987 60.5247C15.1936 60.5397 15.7888 60.5472 16.3842 60.5472C17.0903 60.5547 17.7972 60.5547 18.5019 60.5547H39.9162C40.6223 60.5547 41.3292 60.5547 42.0339 60.5472C42.6294 60.5472 43.2243 60.5397 43.8187 60.5247C45.121 60.5085 46.4202 60.3906 47.7052 60.1722C48.9902 59.9477 50.235 59.5255 51.3974 58.9197C53.734 57.6961 55.6347 55.7458 56.8283 53.3472C57.4153 52.1512 57.8255 50.8722 58.0457 49.5522C58.2565 48.2328 58.3708 46.8991 58.3875 45.5622C58.4035 44.9472 58.4101 44.3397 58.4137 43.7247C58.4181 43.0047 58.4181 42.2772 58.4181 41.5497V19.5597H58.4196Z" fill="#A89583"/>
<path d="M22.7427 32.9791C22.0988 32.9791 21.7073 32.62 21.7073 31.9637V28.1492H23.8534L23.9047 27.6787H21.7199V26.5547H21.6676L20.1338 28.0939V28.1492H20.9246L20.8993 31.9512C20.8866 33.0412 21.518 33.6231 22.5281 33.6231C23.3236 33.6231 23.8791 33.301 23.9676 32.6447C23.6519 32.843 23.2604 32.9791 22.7427 32.9791Z" fill="white"/>
<path d="M12.4385 32.1547C12.1042 32.6484 11.827 32.7936 11.213 32.7936H8.98515V32.7431C8.9238 32.7936 9.44266 32.3516 10.1894 31.7714C10.2521 31.7227 10.3154 31.6739 10.379 31.625C11.2551 30.9505 12.1768 30.2409 12.1768 29.0632C12.1768 27.8867 11.0854 27.3691 10.0627 27.3691C9.50817 27.3691 8.78648 27.6421 8.46071 27.8647C8.46071 27.8647 8.42166 28.4233 8.39478 28.9182H8.54995C8.7672 28.5613 9.01161 28.2926 9.28734 28.1078C9.49758 27.9669 9.7656 27.8641 10.1637 27.8645C10.8835 27.8655 11.3929 28.4299 11.3682 29.0486C11.3373 29.8164 10.8091 30.4939 10.1779 31.1056C8.91764 32.3267 8.1123 33.0537 8.1123 33.0537V33.5242H11.4457C11.8007 33.5242 12.062 33.5342 12.3559 33.5453L12.458 33.5491L12.5927 32.1547H12.4385Z" fill="white"/>
<path fill-rule="evenodd" clip-rule="evenodd" d="M24.623 30.5642C24.623 28.6198 26.0003 27.3701 27.5409 27.3701C29.1822 27.3701 30.4565 28.5828 30.4565 30.5023C30.4565 32.3599 29.1559 33.6231 27.5775 33.6231C25.8982 33.6231 24.623 32.4219 24.623 30.5642ZM29.4841 30.8243C29.4841 29.3753 28.8161 27.8531 27.4398 27.8531C26.3034 27.8531 25.5951 28.9295 25.5951 30.3289C25.5951 31.9636 26.4411 33.165 27.6912 33.165C28.7772 33.165 29.4841 32.1742 29.4841 30.8243Z" fill="white"/>
<path fill-rule="evenodd" clip-rule="evenodd" d="M38.5784 27.3691C36.9369 27.3691 35.7881 28.7191 35.7881 30.614C35.7881 32.4345 36.8739 33.6234 38.7173 33.6234C39.4622 33.6234 39.9926 33.4747 40.3335 33.2023C40.5481 33.0166 40.6998 32.7936 40.7629 32.5211C40.2831 32.7689 39.7527 32.9546 38.97 32.9546C37.4168 32.9546 36.6591 31.8029 36.6591 30.3415C36.6591 30.2424 36.6591 30.1309 36.6718 30.0196H40.8639C40.8639 29.9763 40.867 29.9329 40.8702 29.8895C40.8734 29.8462 40.8766 29.8028 40.8766 29.7594C40.8766 28.1991 39.9925 27.3691 38.5784 27.3691ZM38.3511 27.8523C39.3574 27.8523 39.8986 28.5658 39.9398 29.538L36.6931 29.6853C36.8045 28.7167 37.3456 27.8523 38.3511 27.8523Z" fill="white"/>
<path fill-rule="evenodd" clip-rule="evenodd" d="M41.8291 30.614C41.8291 28.7191 42.978 27.3691 44.6194 27.3691C46.0336 27.3691 46.9176 28.1991 46.9176 29.7594C46.9176 29.8028 46.9145 29.8462 46.9113 29.8895C46.9081 29.9329 46.9049 29.9763 46.9049 30.0196H42.7128C42.7001 30.1309 42.7001 30.2424 42.7001 30.3415C42.7001 31.8029 43.4578 32.9546 45.0109 32.9546C45.7938 32.9546 46.3241 32.7689 46.804 32.5211C46.7409 32.7936 46.5891 33.0166 46.3746 33.2023C46.0336 33.4747 45.5033 33.6234 44.7583 33.6234C42.9149 33.6234 41.8291 32.4345 41.8291 30.614ZM45.9809 29.538C45.9396 28.5658 45.3985 27.8523 44.3922 27.8523C43.3866 27.8523 42.8456 28.7167 42.7342 29.6853L45.9809 29.538Z" fill="white"/>
<path d="M34.5938 27.3691C34.783 27.3691 34.9345 27.3938 35.048 27.4186L35.1687 28.5258H35.1319C34.8178 28.3173 34.4505 28.1864 34.0382 28.1864C33.6091 28.1864 33.2431 28.3101 32.8139 28.57V32.4839C32.8139 32.9308 32.9592 33.2063 33.4695 33.4468V33.5242H31.4388V33.4411C31.9036 33.2018 32.006 32.9272 32.006 32.4839V28.57L31.3115 28.0131L32.8139 27.3691V28.2334C32.8211 28.2251 33.6426 27.3691 34.5938 27.3691Z" fill="white"/>
<path d="M15.9695 29.0039C15.9695 29.4127 16.549 29.7203 17.2056 29.9928L17.3377 30.0478C18.2541 30.4286 19.2777 30.8539 19.2777 31.9762C19.2777 32.9793 18.4695 33.6233 17.2952 33.6233C16.3055 33.6233 15.7016 33.2413 15.4702 33.0654C15.4619 32.9204 15.4522 32.7731 15.4421 32.6197C15.4294 32.4267 15.4161 32.2239 15.404 32.0041H15.5586C15.6973 32.233 15.8462 32.4291 16.0087 32.586C16.2533 32.8223 16.5683 32.9706 16.9066 33.0272C17.0622 33.0532 17.2249 33.066 17.3961 33.066C18.1539 33.066 18.6747 32.7069 18.6714 32.0876C18.6689 31.6047 18.1772 31.3933 17.5585 31.1456C17.4833 31.1162 17.4063 31.0867 17.3284 31.057C16.425 30.7116 15.3887 30.3154 15.3887 29.1525C15.3887 27.9761 16.2977 27.3691 17.3205 27.3691C17.875 27.3691 18.5966 27.6421 18.9224 27.8646C18.9224 27.8646 18.9618 28.4267 18.9887 28.9227H18.8358C18.6179 28.5636 18.3727 28.2933 18.0958 28.1078C17.8857 27.9671 17.6175 27.8641 17.2195 27.8645C16.4997 27.8655 15.9695 28.3847 15.9695 29.0039Z" fill="white"/>
<path d="M52.7751 32.2987C52.532 32.7307 52.2733 33.0536 51.75 33.0536H49.0984L53 27.5054H48.0242L47.8773 28.8522H48.0319C48.3614 28.3649 48.6533 28.0008 49.1984 28.0008H51.6614L47.7979 33.5243H52.8106L52.9286 32.2987H52.7751Z" fill="white"/>
<path d="M6.58609 32.4841C6.58609 32.9309 6.73125 33.2063 7.2417 33.447V33.5243H5.21097V33.4413C5.67577 33.202 5.77819 32.9273 5.77819 32.4841V28.9637H5V28.9083L6.53374 27.3691H6.58609V32.4841Z" fill="white"/>
</g>
<defs>
<clipPath id="clip0_978_4139">
<rect width="59" height="61" fill="white"/>
</clipPath>
</defs>
</svg>
